REM DIRINDEX 1\2,1\3,1\4,1\5,1\6
REM DIRNAME "folder01","folder02","folder03","folder04","folder05","folder06"
TITLE ""
FILE "Disc3Track38.mp3" MP3
  TRACK 01 AUDIO
    TITLE "3:cjc161_05192"
    INDEX 01 00:00:00
  TRACK 02 AUDIO
    TITLE "4:cjc161_05193"
    INDEX 01 00:01:12
  TRACK 03 AUDIO
    TITLE "5:cjc161_05194"
    INDEX 01 00:01:70
  TRACK 04 AUDIO
    TITLE "6:cjc161_05195"
    INDEX 01 00:03:18
  TRACK 05 AUDIO
    TITLE "0:"
    INDEX 01 00:06:62
  TRACK 06 AUDIO
    TITLE "3:cjc161_05196"
    INDEX 01 00:07:18
  TRACK 07 AUDIO
    TITLE "4:cjc161_05197"
    INDEX 01 00:08:51
  TRACK 08 AUDIO
    TITLE "5:cjc161_05198"
    INDEX 01 00:09:56
  TRACK 09 AUDIO
    TITLE "0:"
    INDEX 01 00:11:14
  TRACK 10 AUDIO
    TITLE "3:cjc161_05199"
    INDEX 01 00:11:45
  TRACK 11 AUDIO
    TITLE "4:cjc161_05200"
    INDEX 01 00:12:72
  TRACK 12 AUDIO
    TITLE "5:cjc161_05201"
    INDEX 01 00:13:70
  TRACK 13 AUDIO
    TITLE "6:cjc161_05202"
    INDEX 01 00:15:20
  TRACK 14 AUDIO
    TITLE "0:"
    INDEX 01 00:19:63
  TRACK 15 AUDIO
    TITLE "3:cjc161_05203"
    INDEX 01 00:20:19
  TRACK 16 AUDIO
    TITLE "4:cjc161_05204"
    INDEX 01 00:21:44
  TRACK 17 AUDIO
    TITLE "5:cjc161_05205"
    INDEX 01 00:24:28
  TRACK 18 AUDIO
    TITLE "6:cjc161_05206"
    INDEX 01 00:25:51
  TRACK 19 AUDIO
    TITLE "0:"
    INDEX 01 00:30:06
  TRACK 20 AUDIO
    TITLE "3:cjc161_05207"
    INDEX 01 00:30:39
  TRACK 21 AUDIO
    TITLE "4:cjc161_05208"
    INDEX 01 00:31:66
  TRACK 22 AUDIO
    TITLE "5:cjc161_05209"
    INDEX 01 00:33:55
  TRACK 23 AUDIO
    TITLE "6:cjc161_05210"
    INDEX 01 00:35:05
  TRACK 24 AUDIO
    TITLE "0:"
    INDEX 01 00:39:51
  TRACK 25 AUDIO
    TITLE "3:cjc161_05211"
    INDEX 01 00:40:06
  TRACK 26 AUDIO
    TITLE "4:cjc161_05212"
    INDEX 01 00:41:31
  TRACK 27 AUDIO
    TITLE "5:cjc161_05213"
    INDEX 01 00:42:48
  TRACK 28 AUDIO
    TITLE "6:cjc161_05214"
    INDEX 01 00:43:69
  TRACK 29 AUDIO
    TITLE "0:"
    INDEX 01 00:45:50
  TRACK 30 AUDIO
    TITLE "3:cjc161_05215"
    INDEX 01 00:46:06
  TRACK 31 AUDIO
    TITLE "4:cjc161_05216"
    INDEX 01 00:47:27
  TRACK 32 AUDIO
    TITLE "5:cjc161_05217"
    INDEX 01 00:50:51
  TRACK 33 AUDIO
    TITLE "6:cjc161_05218"
    INDEX 01 00:51:72
  TRACK 34 AUDIO
    TITLE "0:"
    INDEX 01 00:55:37
  TRACK 35 AUDIO
    TITLE "3:cjc161_05219"
    INDEX 01 00:55:68
  TRACK 36 AUDIO
    TITLE "4:cjc161_05220"
    INDEX 01 00:57:24
  TRACK 37 AUDIO
    TITLE "5:cjc161_05221"
    INDEX 01 00:58:63
  TRACK 38 AUDIO
    TITLE "0:"
    INDEX 01 01:00:20
  TRACK 39 AUDIO
    TITLE "3:cjc161_05222"
    INDEX 01 01:00:56
  TRACK 40 AUDIO
    TITLE "4:cjc161_05223"
    INDEX 01 01:02:21
  TRACK 41 AUDIO
    TITLE "5:cjc161_05224"
    INDEX 01 01:04:04
  TRACK 42 AUDIO
    TITLE "0:"
    INDEX 01 01:05:45
  TRACK 43 AUDIO
    TITLE "3:cjc161_05225"
    INDEX 01 01:06:09
  TRACK 44 AUDIO
    TITLE "4:cjc161_05226"
    INDEX 01 01:07:42
  TRACK 45 AUDIO
    TITLE "5:cjc161_05227"
    INDEX 01 01:10:60
  TRACK 46 AUDIO
    TITLE "6:cjc161_05228"
    INDEX 01 01:12:16
  TRACK 47 AUDIO
    TITLE "0:"
    INDEX 01 01:15:59
  TRACK 48 AUDIO
    TITLE "3:cjc161_05229"
    INDEX 01 01:16:17
  TRACK 49 AUDIO
    TITLE "4:cjc161_05230"
    INDEX 01 01:17:50
  TRACK 50 AUDIO
    TITLE "5:cjc161_05231"
    INDEX 01 01:18:54
  TRACK 51 AUDIO
    TITLE "0:"
    INDEX 01 01:20:13
  TRACK 52 AUDIO
    TITLE "3:cjc161_05232"
    INDEX 01 01:20:50
  TRACK 53 AUDIO
    TITLE "4:cjc161_05233"
    INDEX 01 01:21:66
  TRACK 54 AUDIO
    TITLE "5:cjc161_05234"
    INDEX 01 01:23:10
  TRACK 55 AUDIO
    TITLE "6:cjc161_05235"
    INDEX 01 01:24:23
  TRACK 56 AUDIO
    TITLE "0:"
    INDEX 01 01:27:25
  TRACK 57 AUDIO
    TITLE "3:cjc161_05236"
    INDEX 01 01:27:56
  TRACK 58 AUDIO
    TITLE "4:cjc161_05237"
    INDEX 01 01:29:10
  TRACK 59 AUDIO
    TITLE "5:cjc161_05238"
    INDEX 01 01:29:71
  TRACK 60 AUDIO
    TITLE "6:cjc161_05239"
    INDEX 01 01:31:23
  TRACK 61 AUDIO
    TITLE "0:"
    INDEX 01 01:33:10
  TRACK 62 AUDIO
    TITLE "3:cjc161_05240"
    INDEX 01 01:33:43
  TRACK 63 AUDIO
    TITLE "4:cjc161_05241"
    INDEX 01 01:34:70
  TRACK 64 AUDIO
    TITLE "5:cjc161_05242"
    INDEX 01 01:36:63
  TRACK 65 AUDIO
    TITLE "0:"
    INDEX 01 01:38:17
